<svg width="130" height="42" viewBox="0 0 130 42" fill="none" xmlns="http://www.w3.org/2000/svg">
<g filter="url(#filter0_d)">
<path d="M127.882 7.98622C127.947 5.78274 126.217 3.9425 124.014 3.87143L65.9962 2H61.9965L4.29697 0.1384C1.97831 0.0635906 0.0821354 1.97057 0.170135 4.28877L1.35784 35.5786C1.44022 37.749 3.23962 39.4568 5.41143 39.4257L7.26304 39.3992C7.26304 39.3992 10.7883 40.3033 26.0037 39.8933C26.0164 39.893 26.0144 39.893 26.0271 39.8927C26.4354 39.8856 58.5322 39.3254 79.1422 38.988C88.7994 38.8298 98.0773 39.6437 111.004 38.58C116.349 38.1402 120.009 37.9649 122.463 37.9107C124.873 37.8574 127.062 35.8678 127.133 33.4585L127.882 7.98622Z" fill="#1B1D22"/>
</g>
<defs>
<filter id="filter0_d" x="0.167191" y="0.136292" width="129.717" height="41.8637" filterUnits="userSpaceOnUse" color-interpolation-filters="sRGB">
<feFlood flood-opacity="0" result="BackgroundImageFix"/>
<feColorMatrix in="SourceAlpha" type="matrix" values="0 0 0 0 0 0 0 0 0 0 0 0 0 0 0 0 0 0 127 0" result="hardAlpha"/>
<feOffset dx="2" dy="2"/>
<feColorMatrix type="matrix" values="0 0 0 0 0.105882 0 0 0 0 0.113725 0 0 0 0 0.133333 0 0 0 0.48 0"/>
<feBlend mode="normal" in2="BackgroundImageFix" result="effect1_dropShadow"/>
<feBlend mode="normal" in="SourceGraphic" in2="effect1_dropShadow" result="shape"/>
</filter>
</defs>
</svg>
